<svg width="512" height="512" viewBox="0 0 512 512" fill="none" xmlns="http://www.w3.org/2000/svg">
  <rect width="512" height="512" rx="36" fill="#ffffff"/>
  <rect x="36" y="36" width="440" height="440" rx="28" fill="#ffffff" stroke="#111827" stroke-width="16"/>
  <rect x="72" y="72" width="104" height="104" fill="#111827"/>
  <rect x="88" y="88" width="72" height="72" fill="#ffffff"/>
  <rect x="104" y="104" width="40" height="40" fill="#111827"/>
  <rect x="336" y="72" width="104" height="104" fill="#111827"/>
  <rect x="352" y="88" width="72" height="72" fill="#ffffff"/>
  <rect x="368" y="104" width="40" height="40" fill="#111827"/>
  <rect x="72" y="336" width="104" height="104" fill="#111827"/>
  <rect x="88" y="352" width="72" height="72" fill="#ffffff"/>
  <rect x="104" y="368" width="40" height="40" fill="#111827"/>
  <rect x="216" y="80" width="16" height="16" fill="#111827"/>
  <rect x="248" y="80" width="16" height="16" fill="#111827"/>
  <rect x="280" y="80" width="16" height="16" fill="#111827"/>
  <rect x="216" y="112" width="16" height="16" fill="#111827"/>
  <rect x="248" y="112" width="16" height="16" fill="#111827"/>
  <rect x="280" y="112" width="16" height="16" fill="#111827"/>
  <rect x="216" y="144" width="16" height="16" fill="#111827"/>
  <rect x="248" y="144" width="16" height="16" fill="#111827"/>
  <rect x="280" y="144" width="16" height="16" fill="#111827"/>
  <rect x="216" y="216" width="16" height="16" fill="#111827"/>
  <rect x="248" y="216" width="16" height="16" fill="#111827"/>
  <rect x="280" y="216" width="16" height="16" fill="#111827"/>
  <rect x="312" y="216" width="16" height="16" fill="#111827"/>
  <rect x="344" y="216" width="16" height="16" fill="#111827"/>
  <rect x="376" y="216" width="16" height="16" fill="#111827"/>
  <rect x="216" y="248" width="16" height="16" fill="#111827"/>
  <rect x="280" y="248" width="16" height="16" fill="#111827"/>
  <rect x="344" y="248" width="16" height="16" fill="#111827"/>
  <rect x="408" y="248" width="16" height="16" fill="#111827"/>
  <rect x="216" y="280" width="16" height="16" fill="#111827"/>
  <rect x="248" y="280" width="16" height="16" fill="#111827"/>
  <rect x="312" y="280" width="16" height="16" fill="#111827"/>
  <rect x="376" y="280" width="16" height="16" fill="#111827"/>
  <rect x="408" y="280" width="16" height="16" fill="#111827"/>
  <rect x="216" y="312" width="16" height="16" fill="#111827"/>
  <rect x="280" y="312" width="16" height="16" fill="#111827"/>
  <rect x="312" y="312" width="16" height="16" fill="#111827"/>
  <rect x="344" y="312" width="16" height="16" fill="#111827"/>
  <rect x="408" y="312" width="16" height="16" fill="#111827"/>
  <rect x="216" y="344" width="16" height="16" fill="#111827"/>
  <rect x="248" y="344" width="16" height="16" fill="#111827"/>
  <rect x="280" y="344" width="16" height="16" fill="#111827"/>
  <rect x="344" y="344" width="16" height="16" fill="#111827"/>
  <rect x="376" y="344" width="16" height="16" fill="#111827"/>
  <rect x="216" y="376" width="16" height="16" fill="#111827"/>
  <rect x="280" y="376" width="16" height="16" fill="#111827"/>
  <rect x="312" y="376" width="16" height="16" fill="#111827"/>
  <rect x="344" y="376" width="16" height="16" fill="#111827"/>
  <rect x="408" y="376" width="16" height="16" fill="#111827"/>
  <rect x="216" y="408" width="16" height="16" fill="#111827"/>
  <rect x="248" y="408" width="16" height="16" fill="#111827"/>
  <rect x="280" y="408" width="16" height="16" fill="#111827"/>
  <rect x="344" y="408" width="16" height="16" fill="#111827"/>
  <rect x="376" y="408" width="16" height="16" fill="#111827"/>
  <text x="256" y="484" text-anchor="middle" font-size="22" font-family="Arial, sans-serif" fill="#16A34A">微信收款码示意图</text>
</svg>
